IKResults
version=1
nRows=13
nColumns=40
inDegrees=yes

Units are S.I. units (second, meters, Newtons, ...)
Angles are in degrees.

endheader
time	pelvis_tilt	pelvis_list	pelvis_rotation	pelvis_tx	pelvis_ty	pelvis_tz	hip_flexion_r	hip_adduction_r	hip_rotation_r	knee_angle_r	knee_angle_r_beta	ankle_angle_r	subtalar_angle_r	mtp_angle_r	hip_flexion_l	hip_adduction_l	hip_rotation_l	knee_angle_l	knee_angle_l_beta	ankle_angle_l	subtalar_angle_l	mtp_angle_l	lumbar_extension	lumbar_bending	lumbar_rotation	arm_flex_r	arm_add_r	arm_rot_r	elbow_flex_r	pro_sup_r	wrist_flex_r	wrist_dev_r	arm_flex_l	arm_add_l	arm_rot_l	elbow_flex_l	pro_sup_l	wrist_flex_l	wrist_dev_l
      0.00000000	     14.56230343	     -4.81896972	      1.38926747	     -1.17200093	      0.94718588	      1.01966718	    -10.53938095	      7.03724934	     -6.99670060	    -15.21989495	     -0.26563728	      8.11241054	     -2.84273368	     -1.64404108	    -19.52584792	      3.80789915	     -5.69968102	    -43.35552452	     -0.75669665	      1.80881331	     14.38694568	     -0.48879232	    -20.51319478	      6.64391570	     -3.02808311	     -2.67891110	    -13.02372659	      0.56887293	     27.20928878	     89.95437384	      0.00000000	      0.00000000	      4.72343279	      6.84430357	      9.50747663	     30.31011871	     89.95437384	      0.00000000	      0.00000000
      0.01000000	     14.70237902	     -4.76855318	      1.34531984	     -1.16641657	      0.94747036	      1.02088359	    -11.24665839	      7.07772266	     -6.88068307	    -14.89902791	     -0.26003709	      8.29961180	     -2.57732673	     -1.75376802	    -19.02767507	      3.78651068	     -5.88537908	    -43.83204684	     -0.76501354	      3.26035033	     15.48796338	     -0.43585395	    -20.66802037	      6.50239443	     -2.82174693	     -2.70351406	    -13.06047370	      0.42027292	     27.38611867	     89.95437384	      0.00000000	      0.00000000	      4.54919790	      6.90392280	      9.66386393	     29.97396563	     89.95437384	      0.00000000	      0.00000000
      0.02000000	     14.84139612	     -4.61773235	      1.29686753	     -1.16096697	      0.94775441	      1.02207385	    -11.84941817	      6.98347759	     -6.98691303	    -14.76125591	     -0.25763252	      8.60162666	     -2.59640752	     -1.80058823	    -18.41894749	      3.81099890	     -5.63883411	    -44.19349173	     -0.77132194	      4.32750053	     16.14834718	     -0.38555652	    -20.83334882	      6.24917882	     -2.66259697	     -2.63596777	    -13.07867877	      0.41872344	     27.37708033	     89.95437384	      0.00000000	      0.00000000	      4.38561781	      7.00925592	      9.69437960	     29.58963200	     89.95437384	      0.00000000	      0.00000000
      0.03000000	     14.86779060	     -4.51472324	      1.22608828	     -1.15557128	      0.94789016	      1.02315533	    -12.38224534	      6.97145629	     -6.57697839	    -14.52178795	     -0.25345301	      8.67725553	     -2.48780647	     -1.88933884	    -17.80791128	      3.66198549	     -5.92683701	    -44.32058795	     -0.77354019	      6.05797347	     17.40332030	     -0.11602300	    -20.89248048	      6.05763034	     -2.44824131	     -2.71057513	    -13.13203607	      0.33536733	     27.65080638	     89.95437384	      0.00000000	      0.00000000	      4.17732147	      7.07380437	      9.78560512	     29.28371731	     89.95437384	      0.00000000	      0.00000000
      0.04000000	     14.95549492	     -4.37798822	      1.10516821	     -1.14993283	      0.94815221	      1.02439082	    -12.93190164	      6.87875527	     -6.63219063	    -14.39850313	     -0.25130129	      8.96041202	     -2.54430618	     -1.93202897	    -17.18765804	      3.67363177	     -5.60157374	    -44.30854187	     -0.77332994	      6.99157526	     17.93587154	      0.02410461	    -20.96183562	      5.78852869	     -2.21943478	     -2.67012192	    -13.14004499	      0.34333533	     27.60027883	     89.95437384	      0.00000000	      0.00000000	      3.94186430	      7.18594299	      9.79278994	     28.88994118	     89.95437384	      0.00000000	      0.00000000
      0.05000000	     15.07048354	     -4.27095157	      0.87762408	     -1.14467573	      0.94850764	      1.02572965	    -13.85312895	      7.05367107	     -4.71240579	    -13.58286680	     -0.23706575	      8.35597896	     -5.05774668	     -2.44361076	    -16.67601898	      3.47560264	     -5.64118534	    -44.21152190	     -0.77163662	      9.06214921	     18.13606182	      8.94443315	    -21.14364057	      5.52909750	     -1.82958868	     -2.72170629	    -13.18040535	      0.26784573	     27.80840058	     89.95437384	      0.00000000	      0.00000000	      3.79465107	      7.24919730	      9.88027220	     28.51134092	     89.95437384	      0.00000000	      0.00000000
      0.06000000	     15.08956029	     -4.14090194	      0.84411130	     -1.13933815	      0.94857130	      1.02683905	    -14.24602569	      6.97689676	     -4.84370030	    -13.56878122	     -0.23681991	      8.63870383	     -4.99275118	     -2.46854096	    -15.89343756	      3.52877235	     -5.29637487	    -44.02677269	     -0.76841214	      9.79616473	     18.44413101	      8.95120753	    -21.16106048	      5.28910536	     -1.67700865	     -2.67361184	    -13.17079892	      0.29197023	     27.78132225	     89.95437384	      0.00000000	      0.00000000	      3.57545466	      7.37627268	      9.88015108	     28.12925115	     89.95437384	      0.00000000	      0.00000000
      0.07000000	     15.21024039	     -3.91460761	      0.65399334	     -1.13398822	      0.94876062	      1.02791689	    -14.79962019	      6.74594997	     -4.62012762	    -13.50402129	     -0.23568963	      8.91933391	     -4.54912104	     -2.61095422	    -15.35202573	      3.32004698	     -5.08652260	    -43.57824590	     -0.76058387	     11.29721978	     18.61628776	     10.20122679	    -21.23158514	      4.91329562	     -1.33921210	     -2.74102840	    -13.18224772	      0.25941596	     27.87940909	     89.95437384	      0.00000000	      0.00000000	      3.49511912	      7.41487508	     10.06259283	     27.51844441	     89.95437384	      0.00000000	      0.00000000
      0.08000000	     15.25550510	     -3.73858771	      0.40642303	     -1.12864504	      0.94884320	      1.02910605	    -15.25663656	      6.57492568	     -4.22346970	    -13.46994476	     -0.23509489	      9.16871349	     -4.49571702	     -2.56589996	    -14.69082342	      3.23248710	     -4.54176708	    -43.01581514	     -0.75076760	     12.15996571	     18.73899852	     10.92532614	    -21.28286353	      4.57222045	     -0.97593286	     -2.76492756	    -13.17656618	      0.12901154	     27.91589715	     89.95437384	      0.00000000	      0.00000000	      3.30289591	      7.46330340	     10.29491408	     27.06041473	     89.95437384	      0.00000000	      0.00000000
      0.09000000	     15.28821493	     -3.48027255	      0.46659494	     -1.12341695	      0.94879074	      1.02974755	    -15.64252603	      6.33121806	     -4.57708331	    -13.47673929	     -0.23521347	      9.41516038	     -4.13703472	     -2.47991239	    -13.93037038	      3.03279423	     -4.47396928	    -42.46688190	     -0.74118691	     13.02949827	     18.79385550	     11.27963837	    -21.31558011	      4.25091691	     -0.93185686	     -2.80811003	    -13.19721416	      0.22578064	     28.04261252	     89.95437384	      0.00000000	      0.00000000	      3.08931257	      7.54827683	     10.46546755	     26.71272415	     89.95437384	      0.00000000	      0.00000000
      0.10000000	     15.27700414	     -3.40994974	      0.20319251	     -1.11824833	      0.94873251	      1.03099192	    -16.23320266	      6.42306546	     -3.14822374	    -13.02689870	     -0.22736227	      9.11972869	     -6.13197431	     -2.07187947	    -13.17947230	      2.97928240	     -3.95174336	    -41.84125200	     -0.73026761	     14.39684209	     18.73115912	     17.32887825	    -21.32913874	      4.01606354	     -0.51766947	     -2.83952803	    -13.22042058	      0.26437266	     28.14853937	     89.95437384	      0.00000000	      0.00000000	      2.87375183	      7.61781661	     10.50402925	     26.33184298	     89.95437384	      0.00000000	      0.00000000
      0.11000000	     15.38433595	     -3.11419476	      0.08690584	     -1.11282886	      0.94875088	      1.03173857	    -16.70480322	      6.05197817	     -3.52248729	    -13.06131618	     -0.22796297	      9.51884192	     -5.28586836	     -1.98692647	    -12.60816537	      2.71861353	     -3.61834594	    -40.89106331	     -0.71368369	     14.88698279	     18.76431759	     15.41764363	    -21.42041846	      3.60361963	     -0.34361538	     -2.89526252	    -13.23661573	      0.29453968	     28.24957357	     89.95437384	      0.00000000	      0.00000000	      2.60436844	      7.63650642	     10.95925458	     26.01652401	     89.95437384	      0.00000000	      0.00000000
      0.12000000	     15.44201373	     -2.86831549	      0.04824745	     -1.10753626	      0.94865568	      1.03239758	    -17.13756429	      5.75957341	     -3.95533917	    -13.06181156	     -0.22797162	      9.88422092	     -4.50063815	     -1.92694572	    -11.91287656	      2.52022546	     -3.32292531	    -39.97613424	     -0.69771516	     15.27017271	     18.73296593	     13.76966474	    -21.47581117	      3.27042800	     -0.21450633	     -2.96738839	    -13.23269133	      0.32388849	     28.40452310	     89.95437384	      0.00000000	      0.00000000	      2.30751754	      7.71627834	     11.17238880	     25.75161896	     89.95437384	      0.00000000	      0.00000000
